<svg width="105" height="16" viewBox="0 0 105 16" fill="none" xmlns="http://www.w3.org/2000/svg">
<path fill-rule="evenodd" clip-rule="evenodd" d="M11.8692 14.0343V16H0V0H11.6063V1.94296H2.3631V6.91719H10.5298V8.86007H2.3631V14.0343H11.8692ZM43.3179 0V16H40.7183L31.1074 3.58866H30.8973V16H28.5076V0H31.265L40.7183 12.3658H40.9283V0H43.3179ZM50.9825 7.52008H54.7113C57.1797 7.52008 58.7509 6.40001 58.7509 4.73152C58.7509 2.97165 57.1272 1.94296 54.7113 1.94296H50.9825V7.52008ZM59.1229 16L54.3437 9.46283H50.9825V16H48.6455V0H55.0265C58.6502 0 61.0135 1.85152 61.0135 4.6858C61.0135 6.90286 59.3855 8.57136 56.7857 9.11986L61.7752 16H59.1229ZM65.9422 15.9958V0H68.463V15.9958H65.9422ZM86.0479 7.86284C86.0479 4.47999 83.7427 1.96575 79.148 1.96575H76.2325V14.0115H79.148C83.7427 14.0115 86.0479 11.497 86.0479 7.86284ZM88.3118 7.90856C88.3118 12.7543 85.3187 16 79.2 16H73.7906V0H79.2C85.2133 0 88.3118 3.17704 88.3118 7.90856ZM104.8 14.0343V16H92.9308V0H104.537V1.94296H95.2943V6.91719H103.46V8.86007H95.2943V14.0343H104.8ZM22.185 0H24.7839L17.9289 16H15.33L22.185 0Z" fill="black"/>
</svg>
